<svg id="Layer_1" data-name="Layer 1" xmlns="http://www.w3.org/2000/svg" xmlns:xlink="http://www.w3.org/1999/xlink" viewBox="0 0 346.56 438.21">
  <defs>
    <clipPath id="clip-path" transform="translate(-80.23 -24.01)">
      <path d="M351,337.67q8.71,20.61,17.45,41.2c6.59,15.62,13.1,31.28,19.79,46.86,2.31,5.37,2.73,10.52-1.37,15s-9.06,4.54-14.45,2.64c-12.86-4.53-25.79-8.87-38.61-13.51-3.14-1.13-4.43-.31-5.75,2.58-5.9,12.88-12,25.67-18.1,38.44-2.43,5.11-6.72,7-12.25,6.6-4.91-.36-7.94-3.12-9.75-7.43Q273.71,436,259.46,402c-.44-1.05-1-2-1.78-3.65-3.27,7.73-6.36,14.93-9.38,22.16-6.89,16.47-13.72,32.95-20.63,49.41-2.06,4.92-5.65,7.57-11.22,7.63s-9-2.67-11.29-7.51c-6-12.82-12.19-25.57-18.19-38.4-1.11-2.37-2.24-2.73-4.73-1.85-13.56,4.82-27.2,9.45-40.84,14.06-4.77,1.61-9.33.77-12.66-2.94a11.74,11.74,0,0,1-2.21-13.17q16.71-39.65,33.28-79.35c.54-1.29,1.28-2.49,1.93-3.73a9.34,9.34,0,0,1,4.39,3.14c-5.49,13.31-10.94,26.63-16.48,39.92C144,401.35,138.18,415,132.46,428.6c-1.24,3-1.66,6,.87,8.57,2.33,2.35,5,1.64,7.8.67,14.19-5,28.45-9.77,42.6-14.84,3.62-1.3,5.38-.62,7,3,6.29,13.82,12.91,27.48,19.39,41.22,1.29,2.71,3.1,4.83,6.31,4.78,3,0,4.89-2,6-4.63,10.14-24.23,20.17-48.51,30.48-72.66,1.61-3.77,1.34-6.67-.91-9.79a3.94,3.94,0,0,0-1.55,2.33q-15,35.79-30.11,71.57c-.67,1.59-.88,3.84-3.14,3.88s-2.82-2.28-3.65-3.93C206.69,445,199.77,431.36,193,417.6c-1.21-2.47-2.35-3-4.95-2.13-7.45,2.6-15,5-22.51,7.38s-15.3,4.87-22.94,7.34c-1.27.41-2.5.78-3.53-.37-.88-1-.62-2.13-.15-3.24.39-.94.71-1.91,1.11-2.85Q155.51,386.88,171,350c8.61,2.27,17.44,2,26.15,1.5,11.51-.71,21.34,3,30.7,9.22,7.59,5.08,15.4,10,25,10.18q19.92,47.64,39.81,95.27c1.24,3,2.7,5.69,6.3,5.78s5.31-2.48,6.69-5.4c6.12-13.06,12.22-26.12,18.48-39.11,2.92-6.05,1.48-6.44,9.31-3.75,13.73,4.74,27.47,9.45,41.17,14.27,3,1.06,5.71,1.27,8-1.26s1.69-5.25.47-8.14q-18.11-43-36.1-86.05c1.24-1.7,2.24-3.59,4-4.84" fill="none"/>
    </clipPath>
    <mask id="mask" x="0" y="0" width="346.56" height="347.01" maskUnits="userSpaceOnUse">
      <g transform="translate(-80.23 -24.01)">
        <g id="SVGID">
          <polygon points="80.22 24.01 426.79 24.01 426.79 371.02 80.22 371.02 80.22 24.01" fill="#fff"/>
        </g>
      </g>
    </mask>
    <radialGradient id="Naamloos_verloop_10" data-name="Naamloos verloop 10" cx="253.53" cy="197.63" fx="419.65506222971044" r="166.14" gradientUnits="userSpaceOnUse">
      <stop offset="0" stop-color="#fff"/>
      <stop offset="1" stop-color="#080055"/>
    </radialGradient>
    <radialGradient id="Naamloos_verloop_5" data-name="Naamloos verloop 5" cx="541.38" cy="358.62" r="283.46" gradientTransform="translate(-31.13 29.52) scale(0.32 0.24)" gradientUnits="userSpaceOnUse">
      <stop offset="0" stop-color="#fff"/>
      <stop offset="1"/>
    </radialGradient>
    <radialGradient id="Naamloos_verloop_3" data-name="Naamloos verloop 3" cx="724.38" cy="364.88" r="283.46" xlink:href="#Naamloos_verloop_5"/>
  </defs>
  <g>
    <g id="Group-5">
      <g mask="url(#mask)">
        <path d="M196.45,50.2c-6.2,0-10.42-.17-14.63,0-7.64.37-14,3.23-18.58,9.75A129.14,129.14,0,0,0,154,75.88a48.65,48.65,0,0,1-22.09,22.06c-4.33,2.17-8.5,4.67-12.72,7.06-8.82,5-13,12.67-12.87,22.74.06,6.52,0,13,.1,19.55a37.54,37.54,0,0,1-5.39,20.07c-2.92,4.95-5.84,9.9-8.87,14.77-6.26,10.09-6.58,20.13-.09,30.25,1.52,2.36,2.74,4.92,4.38,7.19a51.67,51.67,0,0,1,10,35.71c-.34,4.06-.15,8.17-.11,12.26.07,8.72,3.08,16,10.66,20.84a68.25,68.25,0,0,0,8.9,5.24c14,6.24,24.47,15.93,30.71,30.08a93.88,93.88,0,0,0,4.64,8.37c5,8.66,12.64,12.66,22.5,12.65q10.16,0,20.31-.08a38,38,0,0,1,20,5.62c4.95,2.92,9.89,5.85,14.77,8.88,9.73,6.06,19.43,6.15,29.18.08,3.69-2.29,7.49-4.4,11.12-6.77,8.36-5.46,17.35-8.42,27.46-7.86,5.48.31,11,.12,16.47.13,10,0,17.76-4,22.77-12.84,2.39-4.22,4.9-8.38,7.07-12.72a48,48,0,0,1,22-22.12c4.44-2.22,8.75-4.73,13-7.28,6.93-4.13,11.59-9.84,12.38-18.24.73-7.79.22-15.58.2-23.37a40.93,40.93,0,0,1,6-21.84c3-4.91,5.89-9.86,8.86-14.78,5.48-9.12,5.76-18.31.38-27.56-2.38-4.08-4.77-8.16-7.33-12.12C403,163.36,400,154.27,400.54,144c.32-5.61.19-11.25.12-16.87-.12-8.55-3.09-15.66-10.48-20.57a157.5,157.5,0,0,0-15.61-8.92,47.89,47.89,0,0,1-21.31-21.28c-2.39-4.65-5-9.2-7.64-13.72-4.12-7-10.06-11.49-18.34-12.25-3.17-.29-6.38-.18-9.57-.24-6.88-.12-13.81.57-20.66-.36-8.46-1.16-15.72-5.44-22.38-10.35-14.21-10.5-27.94-10.64-42.15-.05-11.22,8.37-23.75,12.92-36.07,10.8M166.13,347.77a9.43,9.43,0,0,0-4.39-3.14c-7.33-8.62-11.79-19-17.69-28.54-3.71-6-9.4-9.6-15.4-12.87-5.82-3.17-11.81-6.05-17.14-10.08a29,29,0,0,1-12-23.31,107.68,107.68,0,0,1,.07-13.8c1.16-12.16-2.19-22.91-9.12-32.82a89.86,89.86,0,0,1-6.88-11.93c-4.57-9.3-4.36-18.7.11-28a147.07,147.07,0,0,1,8.92-15.18c4.77-7.54,7.51-15.53,7-24.6-.31-5.48-.07-11-.14-16.49-.16-12.38,5.35-21.55,15.83-27.83,4-2.43,8.13-4.82,12.37-6.89a43.94,43.94,0,0,0,20.73-20.68c3.16-6.4,6.43-12.76,11.16-18.24,5.81-6.73,13.24-9.78,21.93-10a103.27,103.27,0,0,1,13.4.05c12.48,1.29,23.37-2.42,33.46-9.48a93.57,93.57,0,0,1,10.6-6.13c9.76-5.1,19.55-4.85,29.37,0a148.31,148.31,0,0,1,14.49,8.58,41.63,41.63,0,0,0,25,7c5.48-.24,11-.08,16.47-.13,12.4-.11,21.47,5.56,27.67,16.08,2.52,4.28,5,8.59,7.25,13a41.87,41.87,0,0,0,19.41,19.38,128.75,128.75,0,0,1,15.59,8.94q13.29,9.17,13.44,25.3a121.28,121.28,0,0,1-.09,12.65c-1.19,12.3,2.17,23.18,9.23,33.16a95.07,95.07,0,0,1,5.84,9.89c6.06,11.2,5.46,22.28-.89,33.15-3.15,5.41-6.37,10.78-9.56,16.15a32.71,32.71,0,0,0-4.61,17.53c.07,6.39,0,12.78.1,19.17.21,12.39-5.27,21.58-15.69,27.92-4.47,2.72-9.07,5.25-13.71,7.66-7.54,3.93-13.75,9.18-17.74,16.85-3.06,5.89-6.27,11.69-9.42,17.53-1.78,1.24-2.78,3.14-4,4.85a15.24,15.24,0,0,0-4,3.64c-6.84,4.59-14.47,5.79-22.52,5.52-5.73-.2-11.48,0-17.22-.06A28.14,28.14,0,0,0,291.77,354c-11.34,5-20.87,13.5-32.95,17.07-2-.56-4-.12-5.94-.12-9.64-.19-17.46-5.1-25-10.18-9.36-6.27-19.19-9.93-30.7-9.22-8.71.54-17.53.78-26.14-1.49a10.78,10.78,0,0,0-4.86-2.24" transform="translate(-80.23 -24.01)" fill="#b20c9e"/>
      </g>
    </g>
    <path id="Fill-12" d="M343,346.16q14.16,33.87,28.3,67.73c1.63,3.88,3.29,7.74,4.85,11.65.54,1.37,1.5,2.87.21,4.3s-2.82.56-4.26.1c-14.79-4.76-29.6-9.44-44.34-14.35-2.94-1-4.14-.36-5.46,2.37-6.71,13.77-13.65,27.43-20.52,41.12-.72,1.45-1.2,3.15-3.38,3.14s-2.56-1.89-3.16-3.32q-17.85-42.47-35.6-85a23.91,23.91,0,0,1-.8-2.9c12.07-3.57,21.6-12.09,32.95-17.07a27.78,27.78,0,0,1,11.48-2.33c5.74,0,11.48-.15,17.2.05,8.06.29,15.69-.91,22.53-5.51" transform="translate(-80.23 -24.01)" fill="#b20c9e"/>
    <path d="M415.81,184c-2.38-4.08-4.77-8.16-7.33-12.13C403,163.37,400,154.27,400.54,144c.32-5.61.19-11.25.12-16.87-.12-8.54-3.09-15.65-10.48-20.57a155.44,155.44,0,0,0-15.61-8.91,47.91,47.91,0,0,1-21.31-21.29c-2.39-4.65-5-9.2-7.64-13.71-4.12-7-10.06-11.5-18.34-12.25-3.17-.29-6.37-.19-9.57-.24-6.88-.13-13.81.57-20.66-.36-8.47-1.16-15.72-5.44-22.38-10.35-14.21-10.5-27.94-10.64-42.15-.06-11.22,8.37-23.75,12.92-36.07,10.8-6.2,0-10.42-.17-14.63,0-7.65.38-14,3.23-18.59,9.76A131.62,131.62,0,0,0,154,75.88a48.56,48.56,0,0,1-22.09,22.06c-4.33,2.18-8.5,4.68-12.71,7.07-8.82,5-13,12.66-12.88,22.73.06,6.52,0,13,.11,19.56a37.66,37.66,0,0,1-5.39,20.07c-2.93,4.94-5.84,9.89-8.88,14.77-6.26,10.08-6.58,20.13-.09,30.24,1.52,2.36,2.74,4.92,4.38,7.19a51.68,51.68,0,0,1,10,35.71c-.35,4.06-.16,8.17-.12,12.26.07,8.72,3.08,16,10.66,20.84a68.25,68.25,0,0,0,8.9,5.24c14,6.24,24.47,15.93,30.72,30.09a89.86,89.86,0,0,0,4.63,8.36c5,8.66,12.64,12.66,22.5,12.65q10.15,0,20.31-.08a38.13,38.13,0,0,1,20,5.62c4.94,2.92,9.89,5.85,14.76,8.88,9.73,6.07,19.43,6.14,29.19.08,3.68-2.29,7.48-4.39,11.11-6.77,8.37-5.45,17.36-8.41,27.46-7.86,5.48.31,11,.12,16.48.13,10,0,17.76-4,22.76-12.84,2.4-4.22,4.9-8.38,7.08-12.71a47.91,47.91,0,0,1,22-22.13c4.44-2.22,8.76-4.73,13-7.28,6.94-4.13,11.59-9.84,12.38-18.24.74-7.79.22-15.58.21-23.37a40.84,40.84,0,0,1,6-21.84c3-4.91,5.9-9.86,8.86-14.78C420.92,202.42,421.19,193.22,415.81,184Z" transform="translate(-80.23 -24.01)" fill="url(#Naamloos_verloop_10)"/>
    <g>
      <g>
        <rect x="105.55" y="70.47" width="76.6" height="90.75" rx="28.16" fill="url(#Naamloos_verloop_5)"/>
        <rect x="164.7" y="71.97" width="76.6" height="90.75" rx="28.16" fill="url(#Naamloos_verloop_3)"/>
        <path d="M269.81,160.09c7.35,5.71,7.35,15.51,22.6,10.07,1.34-.48,4.63,0,9-2.45,3.76-2.12,6.15-5.23,6.54-9.53" transform="translate(-80.23 -24.01)" fill="none" stroke="#000" stroke-miterlimit="10" stroke-width="5"/>
        <path d="M197.82,153.52c2.87,6.71,10.59,9.75,17.66,11.53,8.43,2.11,18.48,3,24.75-3" transform="translate(-80.23 -24.01)" fill="none" stroke="#000" stroke-miterlimit="10" stroke-width="5"/>
        <path d="M263.05,124.3a32.22,32.22,0,0,1,13.05,2.2c1.47.57,3,1.24,4.58.83s2.57-2.57,1.38-3.62l6.25.75" transform="translate(-80.23 -24.01)" fill="none"/>
        <path d="M198,122.1a7.7,7.7,0,0,0,14.73,4.25c1-2.43.39-5.61-1.85-7s-5.82.31-5.66,2.91l-9.42-1.14a1.83,1.83,0,0,0,.57,2.42" transform="translate(-80.23 -24.01)" fill="none" stroke="#000" stroke-miterlimit="10" stroke-width="5"/>
        <path d="M230.13,121.14c-3.47.51-4.81,5.47-2.74,8.3s6.14,3.5,9.53,2.63a7.58,7.58,0,0,0,3.05-1.46c2.42-2.1,2.18-6.34-.18-8.52a7.9,7.9,0,0,0-9-.76" transform="translate(-80.23 -24.01)" fill="none" stroke="#000" stroke-miterlimit="10" stroke-width="5"/>
        <path d="M269.66,124.79a7,7,0,0,0-9,1.85,6.83,6.83,0,0,0,1.34,9c1.84,1.4,4.27,1.73,6.58,1.86,2.92.18,6.2,0,8.24-2.11,2.21-2.26,2-6.3-.22-8.57a7.84,7.84,0,0,0-8.78-1.36" transform="translate(-80.23 -24.01)" fill="#e900e6" stroke="#000" stroke-miterlimit="10" stroke-width="5"/>
        <path d="M295.51,118.5c-2.48,2.31-1.15,6.86,1.76,8.6s6.6,1.41,9.91.68c2.76-2.9,1-8.11-2.49-10.16S297,115.8,293,116.17l-.05,3.57" transform="translate(-80.23 -24.01)" fill="none" stroke="#000" stroke-miterlimit="10" stroke-width="5"/>
        <path d="M207.86,148.86H224" transform="translate(-80.23 -24.01)" fill="none" stroke="#000" stroke-miterlimit="10" stroke-width="5"/>
        <path d="M276.83,149.63h19.93" transform="translate(-80.23 -24.01)" fill="none" stroke="#000" stroke-miterlimit="10" stroke-width="5"/>
        <path d="M151.8,157.85c0,3.19.06,6.37,0,9.56-.05,1.84.4,2.83,2.53,2.79,6-.11,12,0,18,0,3.27,0,5-1.87,5.12-5,.16-4.71.19-9.43,0-14.15-.12-3.21-1.8-5.17-5.34-5.13-5.74.07-11.47.09-17.2,0-2.37,0-3.17.91-3.07,3.18.12,2.93,0,5.86,0,8.8m-8.64,11.79c0-9.58.1-19.16-.06-28.74,0-2.78.58-3.78,3.55-3.71,8.68.21,17.37.07,26,.08,7.34,0,13,5.24,13.27,12.52.2,5.48.2,11,0,16.47a12.77,12.77,0,0,1-12.65,12.4c-5.87.14-11.75.2-17.61,0-3-.11-3.68.94-3.59,3.73.19,5.61.15,11.24,0,16.85-.08,2.38-1,4.56-3.94,4.83a4.27,4.27,0,0,1-4.76-3,9,9,0,0,1-.2-3q0-14.17,0-28.36" transform="translate(-80.23 -24.01)" fill="#ff00d7"/>
        <path d="M338.06,158c0,3.18.08,6.37,0,9.55-.06,2,.74,2.66,2.7,2.63,5.86-.08,11.72,0,17.58,0,3.44,0,5.25-1.84,5.35-5.14.14-4.71.19-9.44,0-14.15-.15-3.25-2-5-5.49-5-5.61.09-11.22.11-16.82,0-2.51-.06-3.43.85-3.3,3.33.15,2.93,0,5.87,0,8.81m-8.65,11.51c0-9.58.12-19.17-.07-28.74-.06-3,.9-3.63,3.69-3.58,8.68.17,17.36.05,26,.07a12.84,12.84,0,0,1,13.15,12.63c.18,5.36.17,10.74,0,16.1a12.8,12.8,0,0,1-12.78,12.66q-9,.19-18,0c-2.34-.05-3.12.71-3.07,3.06.14,5.49.13,11,0,16.47-.06,2.95-.65,5.88-4.51,5.84-3.39,0-4.51-2.21-4.49-5.38.06-9.7,0-19.41,0-29.12" transform="translate(-80.23 -24.01)" fill="#ff00d7"/>
        <path d="M239.2,170.73a15.91,15.91,0,0,0-.79-3.7c-3.08-6.44-6.2-12.87-9.49-19.2-1.44-2.76-3.71-2.73-5.16.08-3.14,6.12-6.1,12.35-9,18.57a10.66,10.66,0,0,0,.43,9.6c2.76,5.6,5.58,11.19,8.37,16.78.64,1.28,1.28,2.65,3,2.57,1.45-.07,2.09-1.25,2.68-2.43,2.91-5.82,5.86-11.62,8.77-17.43a11.61,11.61,0,0,0,1.25-4.84m-33.92.1a12.41,12.41,0,0,1,.9-6.5c3.52-7.37,6.82-14.87,10.87-21.94,4.34-7.58,15.46-7,19.46.71,3.34,6.46,6.48,13,9.67,19.56a17.71,17.71,0,0,1,.11,15.89c-2.86,6.12-5.92,12.16-8.86,18.24-2.24,4.64-5.58,7.5-11,7.31-5.18-.18-8.46-2.87-10.63-7.41-2.7-5.64-5.53-11.21-8.38-16.78a16.48,16.48,0,0,1-2.1-9.08" transform="translate(-80.23 -24.01)" fill="#ff00d7"/>
        <path d="M289.33,159l-1,0c-1.17,4-2.44,7.94-3.49,11.95-.86,3.28-4.07,7.67-1.84,9.55s7,.44,10.71.52c1.6,0,1.91-.5,1.44-2.05-2-6.64-3.9-13.32-5.83-20m16.26,45.1c-2.55,0-3.58-1.66-4.23-3.71a72.68,72.68,0,0,1-2.34-8.07c-.45-2.27-1.6-2.83-3.7-2.78q-6.69.16-13.39,0c-2-.05-3,.65-3.5,2.6-.72,2.84-1.79,5.59-2.5,8.43s-2.63,4.07-5.38,3.38c-3.16-.78-3.75-3.32-3-6.05,1.84-6.62,3.9-13.19,5.85-19.77l10.77-36.26c.54-1.87,1.11-3.88,3.24-4.38,2.6-.62,4.87,0,5.73,3q8.37,29,16.71,58a4.21,4.21,0,0,1-4.28,5.65" transform="translate(-80.23 -24.01)" fill="#ff00d7"/>
      </g>
      <g>
        <path d="M193.58,287h3.28v5.92H203V287h3.28v15.17H203v-6.56h-6.1v6.56h-3.28Z" transform="translate(-80.23 -24.01)" fill="#ff0af4"/>
        <path d="M211.74,297.1c0,1.42.71,2.82,2.28,2.82a1.8,1.8,0,0,0,2-1.22h3.15a5,5,0,0,1-5.22,3.68c-3.75,0-5.38-2.8-5.38-5.79,0-3.57,1.83-6.12,5.49-6.12,3.91,0,5.24,2.83,5.24,5.67a7.16,7.16,0,0,1,0,1Zm4.39-1.94c0-1.32-.55-2.44-2.08-2.44s-2.12,1-2.25,2.44Z" transform="translate(-80.23 -24.01)" fill="#ff0af4"/>
        <path d="M230.88,299.18a24.32,24.32,0,0,0,.16,2.94h-3a5.5,5.5,0,0,1-.16-1.11c-.41.64-1.18,1.37-3.2,1.37-2.74,0-3.9-1.8-3.9-3.57,0-2.59,2.08-3.79,5.42-3.79h1.63v-.69c0-.81-.29-1.61-1.76-1.61s-1.62.56-1.76,1.39h-3c.17-2,1.42-3.66,4.88-3.64,3.05,0,4.71,1.21,4.71,3.92Zm-3.07-2.24h-1.29c-1.9,0-2.6.58-2.6,1.67a1.46,1.46,0,0,0,1.64,1.52c2,0,2.25-1.39,2.25-2.9Z" transform="translate(-80.23 -24.01)" fill="#ff0af4"/>
        <path d="M244.12,286.06V299c0,1,0,2.09,0,3.13h-3a11.85,11.85,0,0,1-.14-1.19c-.55.9-1.53,1.45-3.24,1.45-2.88,0-4.71-2.31-4.71-5.86s1.95-6,5.17-6c1.64,0,2.52.57,2.78,1.09v-5.5Zm-7.86,10.38c0,2.22.87,3.42,2.41,3.42,2.17,0,2.42-1.81,2.42-3.45,0-1.94-.28-3.42-2.34-3.42C237.1,293,236.26,294.29,236.26,296.44Z" transform="translate(-80.23 -24.01)" fill="#ff0af4"/>
        <path d="M251.13,290.73h1.75v-3.08H256v3.08h2.23v2.37H256v5.62c0,.87.26,1.2,1.2,1.2a6.28,6.28,0,0,0,.72,0v2.17a7.24,7.24,0,0,1-2.12.21c-2.22,0-3-1.18-3-3.18v-6h-1.75Z" transform="translate(-80.23 -24.01)" fill="#ff0af4"/>
        <path d="M270.6,296.4c0,3.45-2.06,6-5.67,6s-5.59-2.52-5.59-5.92,2.12-6,5.74-6C268.43,290.47,270.6,292.83,270.6,296.4Zm-8.06,0c0,2.19.94,3.49,2.46,3.49s2.4-1.3,2.4-3.47c0-2.39-.88-3.52-2.45-3.52S262.54,294,262.54,296.43Z" transform="translate(-80.23 -24.01)" fill="#ff0af4"/>
        <path d="M278.48,287h3.28v5.92h6.1V287h3.28v15.17h-3.28v-6.56h-6.1v6.56h-3.28Z" transform="translate(-80.23 -24.01)" fill="#ff0af4"/>
        <path d="M296.63,297.1c0,1.42.72,2.82,2.29,2.82a1.8,1.8,0,0,0,2-1.22h3.15a5,5,0,0,1-5.22,3.68c-3.76,0-5.38-2.8-5.38-5.79,0-3.57,1.83-6.12,5.49-6.12,3.91,0,5.24,2.83,5.24,5.67a7.16,7.16,0,0,1,0,1Zm4.4-1.94c0-1.32-.55-2.44-2.09-2.44s-2.12,1-2.24,2.44Z" transform="translate(-80.23 -24.01)" fill="#ff0af4"/>
        <path d="M315.78,299.18a27.36,27.36,0,0,0,.15,2.94h-3a4.87,4.87,0,0,1-.16-1.11c-.41.64-1.19,1.37-3.2,1.37-2.75,0-3.9-1.8-3.9-3.57,0-2.59,2.08-3.79,5.42-3.79h1.62v-.69c0-.81-.29-1.61-1.75-1.61s-1.62.56-1.77,1.39h-3c.17-2,1.43-3.66,4.89-3.64,3.05,0,4.71,1.21,4.71,3.92Zm-3.07-2.24h-1.29c-1.9,0-2.6.58-2.6,1.67a1.46,1.46,0,0,0,1.64,1.52c2,0,2.25-1.39,2.25-2.9Z" transform="translate(-80.23 -24.01)" fill="#ff0af4"/>
        <path d="M329,286.06V299c0,1,0,2.09,0,3.13h-3c-.07-.34-.13-.93-.15-1.19a3.42,3.42,0,0,1-3.23,1.45c-2.88,0-4.71-2.31-4.71-5.86s1.95-6,5.17-6c1.64,0,2.52.57,2.77,1.09v-5.5Zm-7.86,10.38c0,2.22.86,3.42,2.41,3.42,2.16,0,2.41-1.81,2.41-3.45,0-1.94-.27-3.42-2.33-3.42C322,293,321.16,294.29,321.16,296.44Z" transform="translate(-80.23 -24.01)" fill="#ff0af4"/>
      </g>
    </g>
    <g>
      <path d="M159.46,265a15.52,15.52,0,0,1-8.25-2.22,16,16,0,0,1-5.76-6,17.4,17.4,0,0,1-2.13-8.62,17,17,0,0,1,2.22-8.68,16.26,16.26,0,0,1,6-6,16.84,16.84,0,0,1,8.62-2.21,16.41,16.41,0,0,1,14.53,8.25,17.4,17.4,0,0,1,2.28,8.68l-2.07,1a16.19,16.19,0,0,1-2,8.1,15,15,0,0,1-13.44,7.8Zm.73-4.67a11.63,11.63,0,0,0,6-1.58,11.2,11.2,0,0,0,4.18-4.37,13.67,13.67,0,0,0,0-12.53,11.78,11.78,0,0,0-16.2-4.37,11.88,11.88,0,0,0-4.25,4.37,13.29,13.29,0,0,0,0,12.53,11.49,11.49,0,0,0,10.26,6Zm14.2,4.36a2.57,2.57,0,0,1-1.88-.7,2.41,2.41,0,0,1-.73-1.84v-10l1.15-5.34,4.07,1.34v14a2.38,2.38,0,0,1-.76,1.84A2.62,2.62,0,0,1,174.39,264.71Z" transform="translate(-80.23 -24.01)" fill="#0600df" stroke="#000" stroke-miterlimit="10" stroke-width="0.5"/>
      <path d="M196.35,237.16a2.47,2.47,0,0,1-1.7-.6A2.05,2.05,0,0,1,194,235a2.15,2.15,0,0,1,.66-1.61,2.41,2.41,0,0,1,1.7-.64h15a2.39,2.39,0,0,1,1.7.64,2.16,2.16,0,0,1,.66,1.61,2.05,2.05,0,0,1-.66,1.58,2.47,2.47,0,0,1-1.7.6Zm14.57,27.55a10.5,10.5,0,0,1-9.56-5.7,12.56,12.56,0,0,1-1.43-6V223.57a2.61,2.61,0,0,1,.7-1.88,2.7,2.7,0,0,1,3.67,0,2.59,2.59,0,0,1,.73,1.88V253a6.76,6.76,0,0,0,1.67,4.7,5.39,5.39,0,0,0,4.21,1.85h1.76a2.19,2.19,0,0,1,1.7.74,2.64,2.64,0,0,1,.67,1.88,2.3,2.3,0,0,1-.82,1.84,3.12,3.12,0,0,1-2.1.7Z" transform="translate(-80.23 -24.01)" fill="#0600df" stroke="#000" stroke-miterlimit="10" stroke-width="0.5"/>
      <path d="M237.37,251.67a2.55,2.55,0,0,1-1.88-.73,2.52,2.52,0,0,1-.73-1.88V219.94a2.49,2.49,0,0,1,.73-1.91,2.57,2.57,0,0,1,1.88-.7,2.47,2.47,0,0,1,1.85.7,2.55,2.55,0,0,1,.7,1.91v29.12a2.57,2.57,0,0,1-.7,1.88A2.45,2.45,0,0,1,237.37,251.67Zm0,13a2.57,2.57,0,0,1-1.88-.7,2.41,2.41,0,0,1-.73-1.84v-28a2.51,2.51,0,0,1,.73-1.91,2.61,2.61,0,0,1,1.88-.69,2.51,2.51,0,0,1,1.85.69,2.57,2.57,0,0,1,.7,1.91v28a2.4,2.4,0,0,1-2.55,2.54Zm25.73,0a2.52,2.52,0,0,1-1.88-.73,2.43,2.43,0,0,1-.73-1.81V246.69a11.79,11.79,0,0,0-1.39-6,9,9,0,0,0-3.74-3.49A12.11,12.11,0,0,0,250,236a11.76,11.76,0,0,0-5.1,1.1,9,9,0,0,0-3.64,3,7.5,7.5,0,0,0-1.33,4.4h-3.46a12.9,12.9,0,0,1,2-6.83,13.83,13.83,0,0,1,5.13-4.76,14.58,14.58,0,0,1,7.16-1.76,16,16,0,0,1,7.67,1.79,12.91,12.91,0,0,1,5.31,5.25,17,17,0,0,1,1.95,8.49v15.48a2.47,2.47,0,0,1-.73,1.81A2.44,2.44,0,0,1,263.1,264.71Z" transform="translate(-80.23 -24.01)" fill="#0600df" stroke="#000" stroke-miterlimit="10" stroke-width="0.5"/>
      <path d="M303.2,265a17.09,17.09,0,0,1-8.7-2.19,16,16,0,0,1-6-6,18.49,18.49,0,0,1,0-17.42,16,16,0,0,1,6-6,17.18,17.18,0,0,1,8.7-2.18,16.89,16.89,0,0,1,8.62,2.18,16,16,0,0,1,5.95,6,17.71,17.71,0,0,1,2.24,8.74,17.27,17.27,0,0,1-2.18,8.68,15.88,15.88,0,0,1-6,6A17,17,0,0,1,303.2,265Zm0-4.67a11.71,11.71,0,0,0,6.07-1.58,11,11,0,0,0,4.16-4.34,13,13,0,0,0,1.49-6.28,13.24,13.24,0,0,0-1.49-6.31,10.94,10.94,0,0,0-4.16-4.37,12.43,12.43,0,0,0-12.13,0,11.37,11.37,0,0,0-4.22,4.37,12.79,12.79,0,0,0-1.54,6.31,12.62,12.62,0,0,0,1.54,6.28,11.5,11.5,0,0,0,4.22,4.34A11.7,11.7,0,0,0,303.2,260.35Z" transform="translate(-80.23 -24.01)" fill="#0600df" stroke="#000" stroke-miterlimit="10" stroke-width="0.5"/>
      <path d="M343.86,264.71A2.57,2.57,0,0,1,342,264a2.41,2.41,0,0,1-.73-1.84v-28a2.51,2.51,0,0,1,.73-1.91,2.61,2.61,0,0,1,1.88-.69,2.51,2.51,0,0,1,1.85.69,2.57,2.57,0,0,1,.7,1.91v28a2.4,2.4,0,0,1-2.55,2.54Zm25.73,0a2.52,2.52,0,0,1-1.88-.73,2.49,2.49,0,0,1-.73-1.81V246.69a11.59,11.59,0,0,0-1.4-6,8.92,8.92,0,0,0-3.72-3.49,12.13,12.13,0,0,0-5.38-1.15,11.74,11.74,0,0,0-5.09,1.1,8.93,8.93,0,0,0-3.64,3,7.51,7.51,0,0,0-1.34,4.4H343a12.9,12.9,0,0,1,2-6.83,13.83,13.83,0,0,1,5.13-4.76,14.62,14.62,0,0,1,7.17-1.76,16,16,0,0,1,7.67,1.79,13,13,0,0,1,5.31,5.25,17.14,17.14,0,0,1,1.94,8.49v15.48a2.49,2.49,0,0,1-2.55,2.54Z" transform="translate(-80.23 -24.01)" fill="#0600df" stroke="#000" stroke-miterlimit="10" stroke-width="0.5"/>
    </g>
    <path d="M202.5,121.27h17.63" transform="translate(-80.23 -24.01)" fill="none"/>
    <path d="M231.62,122.81h16.09" transform="translate(-80.23 -24.01)" fill="none"/>
  </g>
  <path d="M263,178" transform="translate(-80.23 -24.01)" fill="#6700d7"/>
</svg>
